<?xml version="1.0" encoding="utf-8"?>
<!-- Generator: Adobe Illustrator 24.3.0, SVG Export Plug-In . SVG Version: 6.00 Build 0)  -->
<svg version="1.1" id="Layer_1" xmlns="http://www.w3.org/2000/svg" xmlns:xlink="http://www.w3.org/1999/xlink" x="0px" y="0px"
	 viewBox="0 0 108.7 46" style="enable-background:new 0 0 108.7 46;" xml:space="preserve">
<style type="text/css">
	.st0{fill:#FFFFFF;}
</style>
<g>
	<g>
		<g>
			<path class="st0" d="M1.1,10.4C1.1,10,1.2,9.6,1.2,9.1c0.5-2.8,2-4.9,4.4-6.3c1.5-0.9,3.2-1.3,4.9-1.3c3.2,0.1,5.7,1.5,7.4,4.2
				c0.4,0.6,0.6,1.2,0.9,1.8C19,7.6,19,7.7,19,7.8c-6.2,1.7-9.9,5.6-11.2,11.9c-0.4-0.1-0.8-0.2-1.1-0.4C4,18,2.2,16,1.4,13.1
				c-0.1-0.5-0.2-1.1-0.3-1.7c0-0.1,0-0.2,0-0.3C1.1,10.9,1.1,10.6,1.1,10.4z"/>
		</g>
		<path class="st0" d="M22.1,7.5c-7.9,0-14.3,6.4-14.3,14.3c0,7.9,6.4,14.3,14.3,14.3s14.3-6.4,14.3-14.3C36.4,13.9,30,7.5,22.1,7.5
			z M22.1,35.7c-7.6,0-13.8-6.2-13.8-13.8S14.4,8,22.1,8s13.8,6.2,13.8,13.8S29.7,35.7,22.1,35.7z"/>
		<path class="st0" d="M23.1,9.8c0,0.1,0,0.3,0,0.4c5.9,0.6,10.5,5.5,10.5,11.6c0,6.4-5.2,11.6-11.6,11.6s-11.6-5.2-11.6-11.6
			c0-6.1,4.6-11,10.5-11.6c0,0,0-0.3,0-0.4c-6.1,0.6-10.9,5.7-10.9,12c0,6.7,5.4,12.1,12.1,12.1s12.1-5.4,12.1-12.1
			C34.1,15.5,29.3,10.4,23.1,9.8z"/>
		<circle class="st0" cx="36.6" cy="35.2" r="9.2"/>
		<path class="st0" d="M31.2,21.8c0,5.1-4.1,9.3-9.3,9.3c-5.1,0-9.2-4.2-9.2-9.3c0-5.1,4.2-9.2,9.3-9.2
			C27.1,12.6,31.2,16.7,31.2,21.8z M26.6,22.1c0,1.5-0.3,2.9-0.8,4.2c0,0,0.1,0,0.1,0c0.9,0.3,1.7,0.7,2.5,1.2
			c0.1,0.1,0.2,0,0.2-0.1c1.1-1.2,1.7-2.7,2-4.3c0.1-0.4,0.1-0.7,0.1-1.1C29.2,22.1,27.9,22.1,26.6,22.1z M30.6,21.4
			c0-0.2,0-0.3,0-0.4c-0.2-1.9-0.9-3.5-2.1-4.9c-0.1-0.1-0.1-0.1-0.2,0c-0.6,0.3-1.2,0.6-1.8,0.9c-0.2,0.1-0.4,0.2-0.7,0.2
			c0.6,1.4,0.8,2.8,0.9,4.2C27.9,21.4,29.2,21.4,30.6,21.4z M18.1,26.2c-0.5-1.3-0.8-2.7-0.8-4.2c-1.3,0-2.6,0-4,0
			c0.1,2.1,0.8,3.9,2.1,5.4C16.4,27.1,17.2,26.6,18.1,26.2z M18.2,17.2c-0.1,0-0.1-0.1-0.2-0.1c-0.8-0.3-1.5-0.6-2.3-1
			c-0.1-0.1-0.2-0.1-0.3,0c-1.1,1.2-1.7,2.7-2,4.3c-0.1,0.3-0.1,0.6-0.1,1c1.4,0,2.7,0,4,0C17.4,20,17.7,18.6,18.2,17.2z M26,22.1
			C25.9,22.1,25.9,22,26,22.1c-1.2,0-2.4,0-3.6,0c-0.1,0-0.1,0.1-0.1,0.1c0,1.1,0,2.2,0,3.4c0,0.1,0.1,0.1,0.2,0.1
			c0.2,0,0.4,0,0.5,0c0.7,0.1,1.5,0.2,2.2,0.3C25.7,24.8,25.9,23.5,26,22.1z M26,21.4c-0.1-1.4-0.3-2.8-0.9-4
			c-1,0.1-1.9,0.3-2.8,0.4c0,1.2,0,2.4,0,3.6C23.5,21.4,24.7,21.4,26,21.4z M21.6,22.1c-1.2,0-2.4,0-3.7,0c0,1.4,0.3,2.7,0.8,4
			c1-0.1,1.9-0.3,2.9-0.4C21.6,24.5,21.6,23.3,21.6,22.1z M21.6,17.8c-0.9-0.1-1.9-0.3-2.8-0.4c-0.5,1.2-0.8,2.6-0.9,4
			c1.2,0,2.5,0,3.7,0C21.6,20.2,21.6,19,21.6,17.8z M25.5,26.9c-0.4,0.6-0.7,1.3-1.2,1.9c-0.4,0.6-0.9,1.1-1.4,1.7
			c1.9-0.2,3.6-1,5-2.4C27.5,27.7,26,27,25.5,26.9z M15.9,28c1.4,1.4,3.1,2.2,5,2.4c0,0,0-0.1,0-0.1c-1-1-1.9-2.1-2.5-3.4
			c0,0-0.1-0.1-0.2-0.1C17.5,27.1,16.7,27.5,15.9,28z M22.9,13.3c1,1,1.9,2.1,2.5,3.4c0.9-0.3,1.7-0.6,2.5-1.1
			C26.5,14.2,24.8,13.5,22.9,13.3z M18.5,16.6c0.6-1.3,1.4-2.4,2.5-3.4c-1.9,0.2-3.5,1-4.9,2.3C16.8,16,17.6,16.4,18.5,16.6z
			 M22.3,30.2c1.1-1,2-2.1,2.6-3.5c-0.9-0.2-1.8-0.4-2.6-0.4C22.3,27.6,22.3,28.9,22.3,30.2z M19,26.7c0.6,1.3,1.5,2.5,2.6,3.5
			c0-1.3,0-2.6,0-3.8C20.7,26.3,19.9,26.4,19,26.7z M24.8,16.8c-0.6-1.3-1.5-2.4-2.5-3.3c0,1.2,0,2.4,0,3.6
			C22.7,17.2,24.4,17,24.8,16.8z M21.6,13.5c-0.7,0.5-2.3,2.5-2.5,3.3c0.5,0.2,2.2,0.4,2.5,0.3C21.6,15.9,21.6,14.8,21.6,13.5z"/>
	</g>
	<g>
		<path class="st0" d="M85.3,32.5c0.8,0.3,1.4,0.8,1.7,1.6c0.4,1.1,0.2,2.7-1,3.6c-0.5,0.4-1,0.5-1.6,0.5c-1.3,0-2.7,0-4,0
			c-0.3,0-0.5-0.2-0.5-0.5c0-0.1,0-0.2,0-0.2c0-3.3,0-6.6,0-9.9c0-0.6,0.1-0.7,0.7-0.7c1.1,0,2.1,0,3.2,0c0.9,0,1.8,0.2,2.4,1
			c1.1,1.3,0.9,3.3-0.6,4.3C85.5,32.4,85.4,32.4,85.3,32.5z M80.7,37.5c0.1,0,0.1,0,0.2,0c1.1,0,2.2,0,3.3,0c2-0.1,2.5-1.7,2-3.1
			c-0.2-0.8-0.9-1.2-1.7-1.3C83.7,33,82.9,33,82.1,33c-0.3,0-0.5-0.1-0.5-0.4c0-0.2,0.2-0.4,0.5-0.4c0.4,0,0.8,0,1.2,0
			c0.9,0,1.7-0.2,2.3-1c0.5-0.6,0.6-1.4,0.3-2.2c-0.3-0.8-1-1.1-1.8-1.2c-0.7,0-1.4,0-2.1,0c-0.5,0-0.9,0-1.4,0
			C80.7,31.1,80.7,34.3,80.7,37.5z"/>
		<path class="st0" d="M100.2,28.7c0,0.1,0,0.3,0,0.4c0,2.9,0,5.9,0,8.8c0,0.1,0,0.2,0,0.3c0,0.2-0.2,0.4-0.4,0.3
			c-0.1,0-0.3-0.2-0.4-0.3c0-0.1,0-0.2,0-0.2c0-3.5,0-7,0-10.5c0-0.2,0-0.5,0.3-0.6c0.3-0.1,0.5,0.1,0.6,0.4c0.3,0.5,0.7,1.1,1,1.6
			c1.6,2.5,3.2,5.1,4.8,7.6c0,0.1,0.1,0.1,0.2,0.2c0-0.1,0-0.2,0-0.4c0-2.9,0-5.8,0-8.7c0-0.1,0-0.3,0-0.4c0.1-0.1,0.3-0.3,0.4-0.3
			c0.1,0,0.3,0.2,0.4,0.4c0,0.1,0,0.2,0,0.2c0,3.5,0,7,0,10.5c0,0.1,0,0.3-0.1,0.4c-0.1,0.3-0.5,0.2-0.7-0.1
			c-0.5-0.7-0.9-1.4-1.4-2.2C103.4,33.6,101.9,31.2,100.2,28.7C100.3,28.7,100.2,28.7,100.2,28.7z"/>
		<path class="st0" d="M70.9,27.9c0,0.2,0,0.3,0,0.4c0,3.2,0,6.4,0,9.6c0,0.1,0,0.2,0,0.3c-0.1,0.1-0.2,0.4-0.4,0.4
			c-0.1,0-0.3-0.2-0.4-0.3c-0.1-0.1,0-0.3,0-0.4c0-3.4,0-6.8,0-10.1c0-0.6,0.1-0.7,0.7-0.7c1.2,0,2.4,0,3.6,0c2.1,0,3.6,1.7,3.3,3.8
			c-0.2,1.3-1,2.1-2.2,2.6c-0.1,0-0.2,0-0.3,0.1c0.1,0.1,0.1,0.3,0.2,0.4c0.7,1.3,1.5,2.6,2.2,4c0,0,0,0.1,0.1,0.1
			c0.1,0.3,0.1,0.5-0.2,0.6c-0.2,0.1-0.4,0-0.5-0.2c-0.3-0.6-0.7-1.2-1-1.7c-0.5-0.9-1-1.8-1.5-2.8c-0.1-0.2-0.2-0.3-0.4-0.3
			c-0.6,0-1.3,0-1.9,0c-0.3,0-0.5,0-0.6-0.4c0-0.4,0.3-0.4,0.5-0.4c0.7,0,1.5,0,2.2,0c1.4,0.1,2.6-1.2,2.5-2.4
			c0-1.3-1.1-2.4-2.5-2.4c-1.1,0-2.1,0-3.2,0C71.1,27.8,71,27.8,70.9,27.9z"/>
		<path class="st0" d="M53.8,13.3c0,0.9,0.1,1.7,0,2.6c-0.2,1.9-1.7,3.2-3.7,3.3c-1.2,0-2.3-0.3-3.2-1.2c-0.6-0.6-0.9-1.3-0.9-2.1
			c-0.1-1.6-0.1-3.2,0-4.7c0.1-2.3,1.8-3.8,4-3.7c1.6,0,2.9,0.7,3.6,2.3c0.2,0.5,0.3,1.1,0.3,1.7C53.9,12,53.8,12.6,53.8,13.3
			C53.8,13.3,53.8,13.3,53.8,13.3z M53,13.3C53,13.3,53,13.3,53,13.3c0-0.7,0-1.4,0-2.1c-0.1-1.3-0.6-2.3-1.9-2.8
			C49.9,8,48.7,8.1,47.6,9c-0.7,0.6-1,1.5-1,2.4c0,1.2,0,2.5,0,3.7c0,1.9,1.1,3,2.8,3.2c2.1,0.2,3.6-1.1,3.6-3.1
			C53,14.5,53,13.9,53,13.3z"/>
		<path class="st0" d="M97.1,32.7c0,0.7,0,1.3,0,2c-0.1,2.5-1.9,4.1-4.4,3.9c-2.1-0.2-3.4-1.4-3.6-3.5c-0.1-1.7-0.1-3.4,0-5
			c0.1-1.8,1.7-3.1,3.4-3.2c1-0.1,2,0.1,2.9,0.7c1,0.7,1.5,1.7,1.6,2.9C97.1,31.1,97.1,31.9,97.1,32.7
			C97.1,32.7,97.1,32.7,97.1,32.7z M96.3,32.7c0-0.7,0-1.4,0-2.1c0-1.6-1.2-2.8-2.6-3c-2-0.3-3.7,0.8-3.8,2.9c0,1.4-0.1,2.8,0,4.2
			c0.1,1.7,1.1,2.8,2.8,2.9c2,0.2,3.5-1,3.5-3C96.3,34,96.3,33.4,96.3,32.7z"/>
		<path class="st0" d="M76.8,14.9c0.9,0,1.7,0,2.5,0c0.2,0,0.3,0,0.5,0c0.3,0,0.4,0.2,0.4,0.4c0,0.3-0.2,0.4-0.4,0.4c-1,0-2,0-2.9,0
			c-0.3,0-0.4,0.1-0.5,0.4c-0.3,0.9-0.6,1.7-1,2.6c-0.1,0.3-0.2,0.5-0.6,0.4c-0.3-0.1-0.3-0.3-0.2-0.7c0.6-1.5,1.1-3.1,1.7-4.6
			c0.7-2,1.5-4,2.2-6c0.1-0.2,0.2-0.4,0.4-0.4c0.3,0,0.4,0.2,0.5,0.4c0.9,2.5,1.9,5,2.8,7.5c0.4,1,0.8,2,1.1,3.1
			c0.1,0.3,0.1,0.5-0.2,0.6c-0.3,0.1-0.5-0.1-0.6-0.3c-0.9-2.4-1.8-4.9-2.7-7.3c-0.3-0.7-0.5-1.4-0.8-2.1c0-0.1-0.1-0.2-0.2-0.3
			C78.3,11,77.5,12.9,76.8,14.9z"/>
		<path class="st0" d="M103.1,8.9c-0.8,2-1.5,4-2.2,6c0.8,0,1.5,0,2.2,0c0.2,0,0.5,0,0.7,0c0.3,0,0.5,0.1,0.5,0.4
			c0,0.3-0.2,0.4-0.5,0.4c-1,0-1.9,0-2.9,0c-0.3,0-0.4,0.1-0.5,0.3c-0.3,0.9-0.7,1.8-1,2.7c-0.1,0.3-0.2,0.5-0.5,0.4
			c-0.3-0.1-0.3-0.3-0.2-0.7c0.9-2.3,1.7-4.7,2.6-7c0.5-1.2,0.9-2.5,1.4-3.7c0.1-0.2,0.3-0.3,0.4-0.4c0.3-0.1,0.4,0.2,0.4,0.4
			c0.9,2.3,1.7,4.6,2.6,6.9c0.5,1.2,0.9,2.5,1.4,3.7c0.1,0.1,0.1,0.4,0,0.5c-0.2,0.3-0.6,0.2-0.7-0.2c-0.3-0.8-0.6-1.6-0.9-2.5
			c-0.9-2.3-1.7-4.7-2.6-7C103.2,9.2,103.2,9.1,103.1,8.9z"/>
		<path class="st0" d="M63.8,28.4c-0.8,2-1.5,4-2.2,6c0.3,0,0.6,0,0.9,0c0.7,0,1.3,0,2,0c0.3,0,0.5,0.1,0.5,0.4
			c0,0.3-0.2,0.4-0.5,0.4c-1,0-1.9,0-2.9,0c-0.3,0-0.4,0.1-0.5,0.3c-0.3,0.9-0.7,1.8-1,2.7c0,0.1-0.1,0.3-0.2,0.3
			c-0.1,0-0.4,0.1-0.4,0c-0.1-0.1-0.2-0.4-0.1-0.5c0.2-0.7,0.5-1.4,0.8-2.1c0.6-1.6,1.2-3.3,1.8-4.9c0.5-1.2,0.9-2.4,1.4-3.6
			c0.1-0.2,0.2-0.4,0.5-0.4c0.3,0,0.4,0.2,0.5,0.4c1,2.6,2,5.3,2.9,7.9c0.3,0.9,0.6,1.7,1,2.6c0,0.1,0,0.1,0.1,0.2
			c0.1,0.2,0,0.4-0.2,0.5c-0.2,0.1-0.4,0-0.5-0.2c-0.2-0.4-0.3-0.9-0.5-1.3c-1-2.8-2.1-5.5-3.1-8.3C63.8,28.5,63.8,28.5,63.8,28.4z"
			/>
		<path class="st0" d="M89.1,17.5c0.3-0.9,0.6-1.7,0.9-2.5c0.8-2.3,1.7-4.7,2.5-7c0-0.1,0.1-0.2,0.1-0.2c0.1-0.2,0.3-0.5,0.6-0.3
			c0.3,0.1,0.3,0.4,0.2,0.6C93.3,8.5,93.1,9,93,9.4c-1.1,3.1-2.3,6.2-3.4,9.3c-0.1,0.2-0.2,0.4-0.4,0.4c-0.2,0-0.3-0.2-0.4-0.4
			c-1-2.7-2-5.5-3-8.2c-0.3-0.8-0.6-1.7-0.9-2.5c-0.1-0.3-0.1-0.5,0.2-0.6c0.3-0.1,0.5,0.1,0.6,0.3c0.3,0.8,0.6,1.6,0.9,2.4
			c0.9,2.4,1.7,4.8,2.6,7.1C89,17.3,89.1,17.4,89.1,17.5z"/>
		<path class="st0" d="M50.7,32.7c0-0.9-0.1-1.7,0-2.6c0.1-1.8,1.4-3,3.2-3.3c1.5-0.2,2.8,0.2,3.8,1.4c0.2,0.2,0.3,0.4,0.1,0.7
			c-0.2,0.2-0.5,0.1-0.7-0.1c-1.2-1.4-3.2-1.5-4.6-0.4c-0.6,0.5-0.9,1.1-0.9,1.9c-0.1,1-0.1,2-0.1,3c0,0.8,0,1.6,0.1,2.3
			c0.3,1.4,1.2,2.1,2.5,2.2c1.2,0.2,2.2-0.2,3-1.1c0.2-0.2,0.4-0.3,0.6-0.1c0.3,0.2,0.1,0.4,0,0.6c-1.4,1.7-3.8,1.8-5.4,0.8
			c-1-0.6-1.5-1.5-1.6-2.6C50.6,34.5,50.7,33.6,50.7,32.7C50.7,32.7,50.7,32.7,50.7,32.7z"/>
		<path class="st0" d="M56,13.3c0-0.9,0-1.9,0.1-2.8c0.2-1.8,1.4-2.8,3.2-3c1.5-0.2,2.8,0.2,3.7,1.4c0.1,0.1,0.2,0.4,0.2,0.5
			c-0.1,0.3-0.4,0.3-0.8,0c-0.3-0.3-0.7-0.6-1.1-0.8c-1.7-0.8-4.4-0.1-4.5,2.5c-0.1,1.6,0,3.3,0,4.9c0,1.3,1.2,2.4,2.6,2.5
			c1.2,0.1,2.2-0.2,3-1.1c0.2-0.2,0.4-0.3,0.6-0.1c0.2,0.2,0.2,0.4,0,0.7c-1,1.2-2.3,1.5-3.8,1.4c-1.6-0.2-2.9-1.2-3.1-2.8
			C56,15.6,56.1,14.8,56,14C56,13.8,56,13.5,56,13.3C56,13.3,56,13.3,56,13.3z"/>
		<path class="st0" d="M68.6,8.4c-0.2,0-0.3,0-0.4,0c-0.9,0-1.9,0-2.8,0c-0.1,0-0.3,0-0.3,0c-0.1-0.1-0.3-0.3-0.3-0.4
			c0-0.1,0.2-0.3,0.3-0.4c0.1,0,0.2,0,0.3,0c2.5,0,4.9,0,7.4,0c0.1,0,0.1,0,0.2,0c0.2,0,0.4,0.1,0.4,0.4c0,0.3-0.2,0.4-0.4,0.4
			c-0.1,0-0.2,0-0.3,0c-0.9,0-1.9,0-2.8,0c-0.1,0-0.3,0-0.4,0c0,0.2,0,0.3,0,0.5c0,3.2,0,6.4,0,9.5c0,0.1,0,0.2,0,0.4
			c0,0.2-0.2,0.4-0.4,0.4c-0.2,0-0.4-0.1-0.4-0.4c0-0.1,0-0.3,0-0.4c0-3.2,0-6.3,0-9.5C68.6,8.8,68.6,8.6,68.6,8.4z"/>
		<path class="st0" d="M95.7,13.2c0-1.7,0-3.4,0-5.2c0-0.5,0.1-0.7,0.4-0.7c0.3,0,0.4,0.2,0.4,0.7c0,3.5,0,6.9,0,10.4
			c0,0.1,0,0.3,0,0.3c-0.1,0.1-0.3,0.3-0.4,0.3c-0.1,0-0.3-0.2-0.4-0.3c-0.1-0.1,0-0.3,0-0.4C95.7,16.7,95.7,15,95.7,13.2z"/>
	</g>
</g>
</svg>
